<svg width="54" height="54" viewBox="0 0 54 54" fill="none" xmlns="http://www.w3.org/2000/svg">
<g filter="url(#filter0_d_30_967)">
<rect x="12" y="12" width="30" height="30" rx="15" fill="#46484A"/>
<path fill-rule="evenodd" clip-rule="evenodd" d="M27.875 20.875C27.875 20.3918 27.4832 20 27 20C26.5168 20 26.125 20.3918 26.125 20.875V26.125H20.8751C20.3918 26.125 20 26.5167 20 27C20 27.4832 20.3925 27.875 20.8758 27.875H26.125V33.1249C26.125 33.6082 26.5168 34 27 34C27.4832 34 27.875 33.6075 27.875 33.1242V27.875H33.125C33.6082 27.875 34 27.4832 34 27C34 26.5168 33.6082 26.125 33.125 26.125H27.875V20.875Z" fill="white"/>
</g>
<defs>
<filter id="filter0_d_30_967" x="0" y="0" width="54" height="54" filterUnits="userSpaceOnUse" color-interpolation-filters="sRGB">
<feFlood flood-opacity="0" result="BackgroundImageFix"/>
<feColorMatrix in="SourceAlpha" type="matrix" values="0 0 0 0 0 0 0 0 0 0 0 0 0 0 0 0 0 0 127 0" result="hardAlpha"/>
<feOffset/>
<feGaussianBlur stdDeviation="6"/>
<feComposite in2="hardAlpha" operator="out"/>
<feColorMatrix type="matrix" values="0 0 0 0 0 0 0 0 0 0 0 0 0 0 0 0 0 0 0.12 0"/>
<feBlend mode="normal" in2="BackgroundImageFix" result="effect1_dropShadow_30_967"/>
<feBlend mode="normal" in="SourceGraphic" in2="effect1_dropShadow_30_967" result="shape"/>
</filter>
</defs>
</svg>
