<svg width="61" height="61" viewBox="0 0 61 61" fill="none" xmlns="http://www.w3.org/2000/svg">
<path d="M22.875 48.2916C10.1667 52.1041 10.1667 41.9374 5.08334 40.6666M40.6667 55.9166V46.0804C40.762 44.8684 40.5983 43.65 40.1863 42.5062C39.7744 41.3625 39.1237 40.3195 38.2775 39.4466C46.2583 38.557 54.6458 35.5324 54.6458 21.6549C54.6452 18.1063 53.2802 14.6938 50.8333 12.1237C51.992 9.01906 51.9101 5.58741 50.6046 2.54161C50.6046 2.54161 47.6054 1.65203 40.6667 6.30328C34.8412 4.72445 28.7005 4.72445 22.875 6.30328C15.9363 1.65203 12.9371 2.54161 12.9371 2.54161C11.6316 5.58741 11.5497 9.01906 12.7083 12.1237C10.2433 14.7129 8.87684 18.1562 8.89584 21.7312C8.89584 35.507 17.2833 38.5316 25.2642 39.5229C24.428 40.387 23.7831 41.4174 23.3714 42.5472C22.9598 43.677 22.7906 44.8809 22.875 46.0804V55.9166" stroke="white" stroke-width="3" stroke-linecap="round" stroke-linejoin="round"/>
</svg>
