<svg width="17" height="17" viewBox="0 0 17 17" fill="none" xmlns="http://www.w3.org/2000/svg">
<path d="M6.37435 13.4584C2.83268 14.5209 2.83268 11.6876 1.41602 11.3334M11.3327 15.5834V12.8422C11.3593 12.5044 11.3136 12.1649 11.1988 11.8461C11.084 11.5274 10.9027 11.2367 10.6668 10.9934C12.891 10.7455 15.2285 9.9026 15.2285 6.0351C15.2283 5.04614 14.8479 4.09511 14.166 3.37885C14.4889 2.51362 14.4661 1.55726 14.1023 0.708432C14.1023 0.708432 13.2664 0.460515 11.3327 1.75676C9.70919 1.31676 7.99784 1.31676 6.37435 1.75676C4.4406 0.460515 3.60477 0.708432 3.60477 0.708432C3.24095 1.55726 3.21812 2.51362 3.54102 3.37885C2.85402 4.10043 2.47322 5.06005 2.47852 6.05635C2.47852 9.89551 4.81602 10.7384 7.04018 11.0147C6.80714 11.2555 6.62741 11.5427 6.51269 11.8575C6.39797 12.1724 6.35084 12.5079 6.37435 12.8422V15.5834" stroke="#46484A" stroke-width="1.2" stroke-linecap="round" stroke-linejoin="round"/>
</svg>
