<svg width="24" height="24" viewBox="0 0 24 24" fill="none" xmlns="http://www.w3.org/2000/svg">
<path d="M15 4.5C15 5.8935 15.96 7.0575 17.25 7.3935V11.25H6.75V7.3935C8.04 7.05825 9 5.8935 9 4.5C9 2.8455 7.6545 1.5 6 1.5C4.3455 1.5 3 2.8455 3 4.5C3 5.8935 3.96 7.0575 5.25 7.3935V11.25C5.25 12.0773 5.92275 12.75 6.75 12.75H11.25V16.6065C9.96 16.9418 9 18.1065 9 19.5C9 21.1545 10.3455 22.5 12 22.5C13.6545 22.5 15 21.1545 15 19.5C15 18.1065 14.04 16.9425 12.75 16.6065V12.75H17.25C18.0773 12.75 18.75 12.0773 18.75 11.25V7.3935C20.04 7.05825 21 5.8935 21 4.5C21 2.8455 19.6545 1.5 18 1.5C16.3455 1.5 15 2.8455 15 4.5ZM4.5 4.5C4.5 3.67275 5.17275 3 6 3C6.82725 3 7.5 3.67275 7.5 4.5C7.5 5.32725 6.82725 6 6 6C5.17275 6 4.5 5.32725 4.5 4.5ZM13.5 19.5C13.5 20.3273 12.8273 21 12 21C11.1727 21 10.5 20.3273 10.5 19.5C10.5 18.6727 11.1727 18 12 18C12.8273 18 13.5 18.6727 13.5 19.5ZM19.5 4.5C19.5 5.32725 18.8273 6 18 6C17.1727 6 16.5 5.32725 16.5 4.5C16.5 3.67275 17.1727 3 18 3C18.8273 3 19.5 3.67275 19.5 4.5Z" fill="#4313A9"/>
</svg>
