<svg width="30" height="31" viewBox="0 0 30 31" fill="none" xmlns="http://www.w3.org/2000/svg">
<path d="M14.2826 4.4533C14.5761 3.85877 15.4239 3.85877 15.7174 4.4533L18.6765 10.4483C18.793 10.6842 19.0179 10.8477 19.2782 10.8858L25.897 11.8532C26.5529 11.9491 26.8143 12.7553 26.3395 13.2179L21.5514 17.8814C21.3627 18.0652 21.2766 18.3301 21.3211 18.5897L22.4509 25.1771C22.563 25.8307 21.877 26.329 21.2901 26.0204L15.3724 22.9083C15.1393 22.7857 14.8607 22.7857 14.6276 22.9083L8.70991 26.0204C8.123 26.329 7.43696 25.8307 7.54906 25.1771L8.67887 18.5897C8.7234 18.3301 8.63727 18.0652 8.44857 17.8814L3.66054 13.2179C3.18567 12.7553 3.4471 11.9491 4.10303 11.8532L10.7218 10.8858C10.9821 10.8477 11.207 10.6842 11.3235 10.4483L14.2826 4.4533Z" stroke="#96999D" stroke-width="0.8" stroke-linecap="round" stroke-linejoin="round"/>
</svg>
