<svg width="30" height="30" viewBox="0 0 30 30" fill="none" xmlns="http://www.w3.org/2000/svg">
<path d="M14.2826 3.9533C14.5761 3.35877 15.4239 3.35877 15.7174 3.9533L18.6765 9.94827C18.793 10.1842 19.0179 10.3477 19.2782 10.3858L25.897 11.3532C26.5529 11.4491 26.8143 12.2553 26.3395 12.7179L21.5514 17.3814C21.3627 17.5652 21.2766 17.8301 21.3211 18.0897L22.4509 24.6771C22.563 25.3307 21.877 25.829 21.2901 25.5204L15.3724 22.4083C15.1393 22.2857 14.8607 22.2857 14.6276 22.4083L8.70991 25.5204C8.123 25.829 7.43696 25.3307 7.54906 24.6771L8.67887 18.0897C8.7234 17.8301 8.63727 17.5652 8.44857 17.3814L3.66054 12.7179C3.18567 12.2553 3.4471 11.4491 4.10303 11.3532L10.7218 10.3858C10.9821 10.3477 11.207 10.1842 11.3235 9.94827L14.2826 3.9533Z" fill="#FFEF61" stroke="#EFF1F4" stroke-width="0.4" stroke-linecap="round" stroke-linejoin="round"/>
</svg>
