<svg width="122" height="27" viewBox="0 0 122 27" fill="none" xmlns="http://www.w3.org/2000/svg">
<path d="M7.704 23.256C5.37867 23.256 3.544 22.7333 2.2 21.688C0.877333 20.6427 0.216 19.224 0.216 17.432C0.216 17.24 0.237333 16.952 0.28 16.568L0.376 15.864C0.397333 15.7573 0.44 15.672 0.504 15.608C0.589333 15.5227 0.685333 15.48 0.792 15.48H4.344C4.45067 15.48 4.536 15.5227 4.6 15.608C4.664 15.672 4.68533 15.7573 4.664 15.864L4.6 16.344C4.49333 17.1973 4.78133 17.9227 5.464 18.52C6.168 19.096 7.17067 19.384 8.472 19.384C9.66667 19.384 10.5627 19.1173 11.16 18.584C11.7787 18.0507 12.088 17.4 12.088 16.632C12.088 16.1627 11.928 15.768 11.608 15.448C11.3093 15.128 10.8933 14.8507 10.36 14.616C9.848 14.36 9.02667 14.008 7.896 13.56C6.65867 13.0907 5.61333 12.632 4.76 12.184C3.90667 11.7147 3.192 11.096 2.616 10.328C2.04 9.56 1.752 8.61067 1.752 7.48C1.752 7.33067 1.77333 7.064 1.816 6.68C2.05067 4.73867 2.936 3.20267 4.472 2.072C6.008 0.919999 7.90667 0.344 10.168 0.344C11.6187 0.344 12.8987 0.6 14.008 1.112C15.1387 1.60267 16.0027 2.30667 16.6 3.224C17.2187 4.12 17.528 5.176 17.528 6.392C17.528 6.56267 17.5067 6.84 17.464 7.224L17.4 7.704C17.3787 7.81067 17.3253 7.90667 17.24 7.992C17.176 8.056 17.0907 8.088 16.984 8.088H13.4C13.2933 8.088 13.208 8.056 13.144 7.992C13.08 7.90667 13.0587 7.81067 13.08 7.704L13.112 7.448C13.2187 6.552 12.952 5.79467 12.312 5.176C11.6933 4.536 10.7547 4.216 9.496 4.216C8.45067 4.216 7.61867 4.46133 7 4.952C6.38133 5.42133 6.072 6.072 6.072 6.904C6.072 7.37333 6.22133 7.768 6.52 8.088C6.81867 8.408 7.256 8.70667 7.832 8.984C8.42933 9.26133 9.32533 9.63467 10.52 10.104C11.8427 10.6373 12.8667 11.096 13.592 11.48C14.3387 11.8427 15.0107 12.3973 15.608 13.144C16.2053 13.8907 16.504 14.8293 16.504 15.96C16.504 16.1093 16.4827 16.376 16.44 16.76C16.184 18.7653 15.2667 20.3547 13.688 21.528C12.1307 22.68 10.136 23.256 7.704 23.256ZM28.8288 0.344C30.9834 0.344 32.6901 0.962666 33.9488 2.2C35.2288 3.416 35.8688 5.048 35.8688 7.096C35.8688 7.50133 35.8368 7.928 35.7728 8.376L34.9088 15.544C34.6741 17.4427 33.9701 19.0533 32.7968 20.376C31.6448 21.6773 30.1834 22.5413 28.4128 22.968C28.3061 23.0107 28.2528 23.064 28.2528 23.128L27.9328 25.752C27.9114 25.8587 27.8581 25.944 27.7728 26.008C27.7088 26.0933 27.6234 26.136 27.5168 26.136H23.8688C23.7621 26.136 23.6768 26.0933 23.6128 26.008C23.5488 25.944 23.5274 25.8587 23.5488 25.752L23.8688 23.16C23.8901 23.0747 23.8581 23.0213 23.7728 23C22.2794 22.6373 21.1061 21.9013 20.2528 20.792C19.3994 19.6613 18.9728 18.296 18.9728 16.696C18.9728 16.184 18.9941 15.8 19.0368 15.544L19.9008 8.376C20.0928 6.776 20.5941 5.368 21.4048 4.152C22.2368 2.936 23.2928 1.99733 24.5728 1.336C25.8528 0.674666 27.2714 0.344 28.8288 0.344ZM31.4208 8.152C31.4421 8.00267 31.4528 7.77867 31.4528 7.48C31.4528 6.49867 31.1754 5.70933 30.6208 5.112C30.0661 4.51467 29.3088 4.216 28.3488 4.216C27.3034 4.216 26.4074 4.57867 25.6608 5.304C24.9141 6.02933 24.4661 6.97867 24.3168 8.152L23.4208 15.448C23.3994 15.5973 23.3888 15.8107 23.3888 16.088C23.3888 17.0907 23.6661 17.8907 24.2208 18.488C24.7754 19.0853 25.5328 19.384 26.4928 19.384C27.5594 19.384 28.4554 19.0213 29.1808 18.296C29.9274 17.5707 30.3754 16.6213 30.5248 15.448L31.4208 8.152ZM45.0263 23.256C42.8289 23.256 41.0796 22.6587 39.7783 21.464C38.4983 20.2693 37.8583 18.6693 37.8583 16.664C37.8583 16.4507 37.8796 16.088 37.9223 15.576L39.7143 0.983999C39.7356 0.877333 39.7889 0.791999 39.8743 0.727999C39.9596 0.642665 40.0556 0.599998 40.1623 0.599998H43.7783C43.8849 0.599998 43.9703 0.642665 44.0343 0.727999C44.0983 0.791999 44.1196 0.877333 44.0983 0.983999L42.3063 15.608C42.2849 15.7573 42.2743 15.96 42.2743 16.216C42.2743 17.176 42.5623 17.944 43.1383 18.52C43.7143 19.096 44.5036 19.384 45.5063 19.384C46.5943 19.384 47.5116 19.0427 48.2583 18.36C49.0263 17.656 49.4849 16.7387 49.6343 15.608L51.4263 0.983999C51.4476 0.877333 51.4903 0.791999 51.5543 0.727999C51.6396 0.642665 51.7356 0.599998 51.8423 0.599998H55.4903C55.5969 0.599998 55.6823 0.642665 55.7463 0.727999C55.8103 0.791999 55.8316 0.877333 55.8103 0.983999L54.0183 15.576C53.8263 17.0907 53.3249 18.4347 52.5143 19.608C51.7036 20.76 50.6476 21.656 49.3463 22.296C48.0663 22.936 46.6263 23.256 45.0263 23.256ZM69.947 23C69.755 23 69.6377 22.8933 69.595 22.68L69.051 19.544C69.051 19.5227 69.0403 19.5013 69.019 19.48C68.9977 19.4373 68.9657 19.416 68.923 19.416H61.275C61.211 19.416 61.1577 19.4587 61.115 19.544L59.803 22.68C59.739 22.8933 59.6003 23 59.387 23H55.419C55.291 23 55.195 22.9573 55.131 22.872C55.0883 22.7867 55.099 22.68 55.163 22.552L64.539 0.919998C64.6457 0.706665 64.795 0.599998 64.987 0.599998H69.851C70.043 0.599998 70.171 0.706665 70.235 0.919998L74.267 22.552V22.648C74.267 22.7547 74.235 22.84 74.171 22.904C74.107 22.968 74.0217 23 73.915 23H69.947ZM62.683 15.736C62.6617 15.864 62.6937 15.928 62.779 15.928H68.251C68.3577 15.928 68.411 15.864 68.411 15.736L66.779 6.232C66.7577 6.14667 66.7257 6.11467 66.683 6.136C66.6403 6.136 66.6083 6.168 66.587 6.232L62.683 15.736ZM83.0165 23.256C80.6912 23.256 78.8565 22.7333 77.5125 21.688C76.1898 20.6427 75.5285 19.224 75.5285 17.432C75.5285 17.24 75.5498 16.952 75.5925 16.568L75.6885 15.864C75.7098 15.7573 75.7525 15.672 75.8165 15.608C75.9018 15.5227 75.9978 15.48 76.1045 15.48H79.6565C79.7632 15.48 79.8485 15.5227 79.9125 15.608C79.9765 15.672 79.9978 15.7573 79.9765 15.864L79.9125 16.344C79.8058 17.1973 80.0938 17.9227 80.7765 18.52C81.4805 19.096 82.4832 19.384 83.7845 19.384C84.9792 19.384 85.8752 19.1173 86.4725 18.584C87.0912 18.0507 87.4005 17.4 87.4005 16.632C87.4005 16.1627 87.2405 15.768 86.9205 15.448C86.6218 15.128 86.2058 14.8507 85.6725 14.616C85.1605 14.36 84.3392 14.008 83.2085 13.56C81.9712 13.0907 80.9258 12.632 80.0725 12.184C79.2192 11.7147 78.5045 11.096 77.9285 10.328C77.3525 9.56 77.0645 8.61067 77.0645 7.48C77.0645 7.33067 77.0858 7.064 77.1285 6.68C77.3632 4.73867 78.2485 3.20267 79.7845 2.072C81.3205 0.919999 83.2192 0.344 85.4805 0.344C86.9312 0.344 88.2112 0.6 89.3205 1.112C90.4512 1.60267 91.3152 2.30667 91.9125 3.224C92.5312 4.12 92.8405 5.176 92.8405 6.392C92.8405 6.56267 92.8192 6.84 92.7765 7.224L92.7125 7.704C92.6912 7.81067 92.6378 7.90667 92.5525 7.992C92.4885 8.056 92.4032 8.088 92.2965 8.088H88.7125C88.6058 8.088 88.5205 8.056 88.4565 7.992C88.3925 7.90667 88.3712 7.81067 88.3925 7.704L88.4245 7.448C88.5312 6.552 88.2645 5.79467 87.6245 5.176C87.0058 4.536 86.0672 4.216 84.8085 4.216C83.7632 4.216 82.9312 4.46133 82.3125 4.952C81.6938 5.42133 81.3845 6.072 81.3845 6.904C81.3845 7.37333 81.5338 7.768 81.8325 8.088C82.1312 8.408 82.5685 8.70667 83.1445 8.984C83.7418 9.26133 84.6378 9.63467 85.8325 10.104C87.1552 10.6373 88.1792 11.096 88.9045 11.48C89.6512 11.8427 90.3232 12.3973 90.9205 13.144C91.5178 13.8907 91.8165 14.8293 91.8165 15.96C91.8165 16.1093 91.7952 16.376 91.7525 16.76C91.4965 18.7653 90.5792 20.3547 89.0005 21.528C87.4432 22.68 85.4485 23.256 83.0165 23.256ZM108.301 0.983999C108.323 0.877333 108.365 0.791999 108.429 0.727999C108.515 0.642665 108.611 0.599998 108.717 0.599998H112.365C112.472 0.599998 112.557 0.642665 112.621 0.727999C112.685 0.791999 112.707 0.877333 112.685 0.983999L110.029 22.616C110.008 22.7227 109.955 22.8187 109.869 22.904C109.805 22.968 109.72 23 109.613 23H105.965C105.859 23 105.773 22.968 105.709 22.904C105.645 22.8187 105.624 22.7227 105.645 22.616L106.733 13.784C106.733 13.6773 106.691 13.624 106.605 13.624H99.7253C99.6186 13.624 99.5653 13.6773 99.5653 13.784L98.4773 22.616C98.4559 22.7227 98.4026 22.8187 98.3173 22.904C98.2533 22.968 98.1679 23 98.0613 23H94.4133C94.3066 23 94.2213 22.968 94.1573 22.904C94.0933 22.8187 94.0719 22.7227 94.0933 22.616L96.7493 0.983999C96.7706 0.877333 96.8133 0.791999 96.8773 0.727999C96.9626 0.642665 97.0586 0.599998 97.1653 0.599998H100.813C100.92 0.599998 101.005 0.642665 101.069 0.727999C101.133 0.791999 101.155 0.877333 101.133 0.983999L100.077 9.592C100.077 9.69867 100.12 9.752 100.205 9.752H107.085C107.192 9.752 107.245 9.69867 107.245 9.592L108.301 0.983999ZM116.569 15.32C116.463 15.32 116.377 15.288 116.313 15.224C116.249 15.1387 116.228 15.0427 116.249 14.936L117.561 0.983999C117.583 0.877333 117.625 0.791999 117.689 0.727999C117.775 0.642665 117.871 0.599998 117.977 0.599998H121.625C121.732 0.599998 121.817 0.642665 121.881 0.727999C121.945 0.791999 121.967 0.877333 121.945 0.983999L119.769 14.936C119.748 15.0427 119.695 15.1387 119.609 15.224C119.545 15.288 119.46 15.32 119.353 15.32H116.569ZM116.857 22.968C116.217 22.968 115.695 22.7653 115.289 22.36C114.884 21.9547 114.681 21.4427 114.681 20.824C114.681 19.9707 114.948 19.2773 115.481 18.744C116.015 18.1893 116.676 17.912 117.465 17.912C118.127 17.912 118.649 18.104 119.033 18.488C119.417 18.872 119.609 19.384 119.609 20.024C119.609 20.8347 119.332 21.528 118.777 22.104C118.244 22.68 117.604 22.968 116.857 22.968Z" fill="url(#paint0_linear_5_117)"/>
<defs>
<linearGradient id="paint0_linear_5_117" x1="121.891" y1="2.68421" x2="3.27831" y2="20.6608" gradientUnits="userSpaceOnUse">
<stop stop-color="#332FED"/>
<stop offset="1" stop-color="#9276CF"/>
</linearGradient>
</defs>
</svg>
